<?xml version="1.0" standalone="no"?><!DOCTYPE svg PUBLIC "-//W3C//DTD SVG 1.1//EN"
        "http://www.w3.org/Graphics/SVG/1.1/DTD/svg11.dtd">
<svg t="1617629630640" class="icon" viewBox="0 0 1024 1024" version="1.1" xmlns="http://www.w3.org/2000/svg" p-id="2092"
     xmlns:xlink="http://www.w3.org/1999/xlink" >
    <defs>
        <style type="text/css"></style>
    </defs>
    <path d="M274.713808 308.227425a235.729488 235.729488 0 0 1 235.818442-235.818443 235.729488 235.729488 0 0 1 235.818443 235.818443 235.729488 235.729488 0 0 1-235.818443 235.818442A235.729488 235.729488 0 0 1 274.713808 308.227425m393.045563 264.817617c89.977501-53.817487 151.000304-152.067758 151.000304-264.817617 0-169.636277-138.591148-308.227425-308.227425-308.227425-169.636277 0-308.227425 138.591148-308.227424 308.227425 0 112.749859 61.022803 211.00013 151.000304 264.817617A443.438301 443.438301 0 0 0 66.782609 987.795509c0 19.65895 16.545541 36.204491 36.204491 36.204491a36.649264 36.649264 0 0 0 36.204491-36.204491c0-204.773314 166.522868-372.363636 372.363636-372.363637 204.817791 0 372.363636 166.522868 372.363637 372.363637 0 19.65895 16.545541 36.204491 36.204491 36.204491A36.649264 36.649264 0 0 0 956.327846 987.839986c-2.045954-189.295227-120.978152-351.68171-288.568475-414.750467"
          fill="#ffffff" p-id="2093"></path>
</svg>
