<?xml version="1.0" standalone="no"?><!DOCTYPE svg PUBLIC "-//W3C//DTD SVG 1.1//EN"
        "http://www.w3.org/Graphics/SVG/1.1/DTD/svg11.dtd">
<svg t="1617629675851" class="icon" viewBox="0 0 1024 1024" version="1.1" xmlns="http://www.w3.org/2000/svg" p-id="4558"
     xmlns:xlink="http://www.w3.org/1999/xlink" >
    <defs>
        <style type="text/css"></style>
    </defs>
    <path d="M438.98 904.17H165.12c-47.21 0-85.62-38.41-85.62-85.62V164.76c0-47.21 38.41-85.62 85.62-85.62h582.21c47.21 0 85.62 38.41 85.62 85.62v250.06c0 21.85 17.71 39.56 39.56 39.56s39.56-17.71 39.56-39.56V164.76C912.07 73.93 838.17 0.03 747.34 0.03H165.12C74.29 0.03 0.39 73.93 0.39 164.76v653.79c0 90.83 73.9 164.73 164.73 164.73h273.86c21.85 0 39.56-17.71 39.56-39.56-0.01-21.84-17.72-39.55-39.56-39.55z"
          fill="#ffffff" p-id="4559"></path>
    <path d="M761.36 494.6c-144.82 0-262.64 117.82-262.64 262.64s117.82 262.64 262.64 262.64S1024 902.06 1024 757.24 906.18 494.6 761.36 494.6z m0 449.93c-103.27 0-187.29-84.02-187.29-187.29s84.02-187.29 187.29-187.29 187.29 84.02 187.29 187.29-84.01 187.29-187.29 187.29zM605.83 186.51H194.4c-21.85 0-39.56 17.71-39.56 39.56s17.71 39.56 39.56 39.56h411.43c21.85 0 39.56-17.71 39.56-39.56s-17.71-39.56-39.56-39.56zM605.83 344.73H194.4c-21.85 0-39.56 17.71-39.56 39.56s17.71 39.56 39.56 39.56h411.43c21.85 0 39.56-17.71 39.56-39.56s-17.71-39.56-39.56-39.56zM452.46 502.96H194.4c-21.85 0-39.56 17.71-39.56 39.56s17.71 39.56 39.56 39.56h258.06c21.85 0 39.56-17.71 39.56-39.56s-17.72-39.56-39.56-39.56z"
          fill="#ffffff" p-id="4560"></path>
    <path d="M856.36 737.35H782.9v-96.07c0-20.81-16.87-37.67-37.67-37.67-20.81 0-37.67 16.87-37.67 37.67v126.2c0 1.27 0.07 2.53 0.19 3.77-0.12 1.24-0.19 2.5-0.19 3.77 0 20.81 16.87 37.67 37.67 37.67h111.13c20.81 0 37.67-16.87 37.67-37.67s-16.87-37.67-37.67-37.67z"
          fill="#ffffff" p-id="4561"></path>
</svg>
