<?xml version="1.0" standalone="no"?><!DOCTYPE svg PUBLIC "-//W3C//DTD SVG 1.1//EN"
        "http://www.w3.org/Graphics/SVG/1.1/DTD/svg11.dtd">
<svg t="1617627157773" class="icon" viewBox="0 0 1024 1024" version="1.1" xmlns="http://www.w3.org/2000/svg" p-id="2486"
     xmlns:xlink="http://www.w3.org/1999/xlink" >
    <defs>
        <style type="text/css">

        </style>
    </defs>
    <path  style="fill:#fff" d="M495.177759 291.58551c-195.396799 0-351.973041 196.690817-351.973041 220.84583S301.937658 733.277169 495.177759 733.277169s351.973041-200.141533 351.973041-220.845829S690.143218 291.58551 495.177759 291.58551z m0 401.577085a180.731255 180.731255 0 1 1 180.731255-180.731255 181.593934 181.593934 0 0 1-180.731255 180.731255z m398.989048-470.160068l-51.329402 51.329402a27.174389 27.174389 0 1 0 38.389217 38.389217l51.329402-51.329402a26.31171 26.31171 0 0 0 0-38.389217 29.331087 29.331087 0 0 0-38.389217 0zM138.459983 312.721146a27.174389 27.174389 0 0 0 38.389217-38.389217L125.519798 223.002527a26.31171 26.31171 0 0 0-38.389217 0 26.31171 26.31171 0 0 0 0 38.389217zM509.843302 215.669756a25.449031 25.449031 0 0 0 25.449032-25.449031V86.267902a25.449031 25.449031 0 0 0-51.329402 0v103.090143a26.74305 26.74305 0 0 0 25.449031 27.17439z m129.401854 582.73968H352.83572a28.899747 28.899747 0 0 0 0 57.799494h285.115417a28.899747 28.899747 0 0 0 28.899748-28.899747 29.762426 29.762426 0 0 0-28.899748-28.899747z m-43.133951 100.933445H395.969671a28.899747 28.899747 0 0 0 0 57.799495h198.416176a28.899747 28.899747 0 0 0 0-57.799495z m0 0"
          p-id="2487"></path>
    <path style="fill:#fff" d="M495.177759 408.478517a122.069082 122.069082 0 0 0-33.644482 4.744735 47.016007 47.016007 0 0 1 11.214827 30.625105 43.133951 43.133951 0 0 1-43.133951 43.133951 43.133951 43.133951 0 0 1-31.919124-12.940185 103.952822 103.952822 0 1 0 200.141534 40.114575 102.658804 102.658804 0 0 0-102.658804-105.678181z m30.625105 168.22241a30.625105 30.625105 0 1 1 30.625106-30.625106 30.193766 30.193766 0 0 1-30.625106 30.625106z m0 0"
          p-id="2488"></path>
</svg>
