<?xml version="1.0" standalone="no"?><!DOCTYPE svg PUBLIC "-//W3C//DTD SVG 1.1//EN"
        "http://www.w3.org/Graphics/SVG/1.1/DTD/svg11.dtd">
<svg t="1617627172191" class="icon" viewBox="0 0 1024 1024" version="1.1" xmlns="http://www.w3.org/2000/svg" p-id="2931"
     xmlns:xlink="http://www.w3.org/1999/xlink" >
    <defs>
        <style type="text/css"></style>
    </defs>
    <path style="fill:#fff" d="M581.1 960H443.6c-52.9 0-96-43.1-96-96v-46.1c0-18-7.7-34.8-21-46-66.4-56-103.8-137.8-102.6-224.6 1.1-75.1 31.1-145.9 84.6-199.3 53.5-53.4 124.3-83.4 199.3-84.5 39.3-0.5 77.4 6.7 113.5 21.5 34.7 14.3 66 34.9 92.8 61.4 26.9 26.5 48 57.4 62.7 92 15.3 35.8 23 73.8 23 113 0 84.6-37 164.6-101.5 219.4-13.6 11.6-21.4 28.2-21.4 45.5V864c0.1 52.9-42.9 96-95.9 96zM512 327.5h-3.2c-58.3 0.8-113.4 24.2-155 65.8-41.6 41.6-65 96.6-65.8 154.9-1 67.5 28.1 131.2 79.8 174.7 27.8 23.5 43.8 58.1 43.8 95V864c0 17.6 14.4 32 32 32h137.6c17.6 0 32-14.4 32-32v-47.5c0-36.2 16-70.5 43.9-94.3 50.2-42.7 78.9-104.9 78.9-170.7 0-60.4-23.7-117.1-66.7-159.5-42.3-41.7-98-64.5-157.3-64.5z"
          p-id="2932"></path>
    <path style="fill:#fff" d="M602.3 609.8c-11.6 0-22.7-6.3-28.4-17.3l-16.7-32.3-16.7 32.3c-5.5 10.6-16.5 17.3-28.4 17.3-11.9 0-22.9-6.7-28.4-17.3L467 560.2l-16.7 32.3c-8.1 15.7-27.5 21.8-43.1 13.7-15.7-8.1-21.8-27.5-13.7-43.1l45.2-87c5.5-10.6 16.5-17.3 28.4-17.3s22.9 6.7 28.4 17.3l16.7 32.3 16.7-32.3c5.5-10.6 16.5-17.3 28.4-17.3 12 0 22.9 6.7 28.4 17.3l45.2 87c8.1 15.7 2 35-13.7 43.1-4.9 2.5-9.9 3.6-14.9 3.6zM512.5 184.4c-17.7 0-32-14.3-32-32v-64c0-17.7 14.3-32 32-32s32 14.3 32 32v64c0 17.7-14.3 32-32 32zM210.6 290.3L165.3 245c-12.5-12.5-12.5-32.8 0-45.3s32.8-12.5 45.3 0l45.3 45.3c12.5 12.5 12.5 32.8 0 45.3s-32.8 12.5-45.3 0zM768.8 291c-12.5-12.5-12.5-32.8 0-45.3l45.3-45.3c12.5-12.5 32.8-12.5 45.3 0s12.5 32.8 0 45.3L814.1 291c-12.5 12.5-32.8 12.5-45.3 0z"
          p-id="2933"></path>
</svg>
