<?xml version="1.0" standalone="no"?><!DOCTYPE svg PUBLIC "-//W3C//DTD SVG 1.1//EN" "http://www.w3.org/Graphics/SVG/1.1/DTD/svg11.dtd"><svg t="1617625623067" class="icon" viewBox="0 0 1365 1024" version="1.1" xmlns="http://www.w3.org/2000/svg" p-id="2147" xmlns:xlink="http://www.w3.org/1999/xlink" ><defs><style type="text/css">
</style></defs>
<path style="fill:#fff"  d="M1328.326252 361.800541a56.498022 56.498022 0 0 0 3.198001-104.25484L772.087235 8.741203a101.90964 101.90964 0 0 0-72.274828-3.411201l-660.920259 209.362482a55.645222 55.645222 0 0 0-38.802415 50.31522 55.858422 55.858422 0 0 0 33.472413 54.366021l225.139288 101.270039v368.836144c0 138.153654 175.250468 234.520092 426.400167 234.520092s426.400167-96.366438 426.400166-234.520092v-167.148865V441.963773l106.600042-39.442016v78.244431a85.280033 85.280033 0 0 0 0 146.894857v97.006038a42.640017 42.640017 0 0 0 85.280033 0v-96.792838a85.280033 85.280033 0 0 0 0-146.894857V370.968145zM725.609617 86.132834a16.629606 16.629606 0 0 1 11.939204 0l494.410993 220.448886-553.041016 204.032479a16.416406 16.416406 0 0 1-12.792005 0L137.177387 272.469706z m-40.508016 852.800333c-191.880075 0-341.120133-65.452426-341.120133-149.240059v-16.842806c77.17843 61.614824 199.981678 101.056839 341.120133 101.056839s263.728503-39.228815 341.120133-100.843639v15.563606c0 84.000833-149.879659 149.453258-341.120133 149.453258z m341.120133-316.815324c-3.411201 98.924839-181.006871 167.575265-341.120133 167.575265s-341.120133-70.142827-341.120133-170.560066v-160.326463l286.540912 129.199251a101.48324 101.48324 0 0 0 77.17843 2.771601l318.307724-116.407246z" fill="#000000" p-id="2150" data-spm-anchor-id="a313x.7781069.0.i7" class="selected">
</path>
</svg>
