<?xml version="1.0" standalone="no"?><!DOCTYPE svg PUBLIC "-//W3C//DTD SVG 1.1//EN"
        "http://www.w3.org/Graphics/SVG/1.1/DTD/svg11.dtd">
<svg t="1617629698125" class="icon" viewBox="0 0 1024 1024" version="1.1" xmlns="http://www.w3.org/2000/svg" p-id="6173"
     xmlns:xlink="http://www.w3.org/1999/xlink" >
    <defs>
        <style type="text/css"></style>
    </defs>
    <path d="M181.744286 1023.627773C119.349748 1022.929848 69.238697 970.771549 69.890095 906.655461V114.928786c0.093057-6.979255 0.744454-13.865453 1.954191-20.472481l0.139585-0.418755C81.196487 43.275103 123.025488 4.05169 174.346276 0.282892 176.905336 0.143307 179.510925 0.003722 182.116513 0.003722l-7.304953 0.27917A111.202795 111.202795 0 0 1 183.698478 0.003722h-3.350043 662.470875c51.739543 0.697925 94.964395 37.269221 107.480525 86.821931l0.325699 1.628493c1.070152 4.187553 1.861135 8.468163 2.372946 12.888357 0 0.372227 0.093057 0.697925 0.139585 1.070153 0.465284 4.141025 0.744454 8.375106 0.790983 12.609187v791.540561c0.325699 64.162617-49.459653 116.367443-111.854192 117.065369z m658.376378-944.432772H183.140137c-19.960669 0.604869-35.5942 17.215495-36.292125 37.827562v792.005845a38.15326 38.15326 0 0 0 36.850466 37.87409h314.950509c0.325699 0 0.977096 0 1.628493 0.651397l-0.093057-0.046529h339.936241a37.87409 37.87409 0 0 0 36.338654-32.755969l0.465284-5.11812V117.069091a38.15326 38.15326 0 0 0-36.803938-37.87409z"
          fill="#ffffff" p-id="6174"></path>
    <path d="M298.94924 232.831665a39.083827 39.083827 0 0 0-42.759568 34.75669 38.804657 38.804657 0 0 0 35.361558 42.015114 26.335055 26.335055 0 0 0 7.444538 0h433.225616a38.758129 38.758129 0 0 0 35.408086-42.015114 38.944242 38.944242 0 0 0-35.408086-34.75669H298.94924z m272.702753 235.20089h-272.656225a39.083827 39.083827 0 0 0-42.806096 34.803218 38.804657 38.804657 0 0 0 35.361558 42.015114 26.335055 26.335055 0 0 0 7.444538 0h269.864523c10.189712-0.697925 20.007197-4.466723 27.684378-11.027222a33.081668 33.081668 0 0 0 11.213336-27.544793 33.826122 33.826122 0 0 0-29.080229-38.246317h-6.979255z m-150.379679 322.674218a34.058764 34.058764 0 0 0 28.056605-10.654996 33.081668 33.081668 0 0 0 11.213336-27.544792 39.549111 39.549111 0 0 0-39.269941-38.618544H298.94924a39.083827 39.083827 0 0 0-42.759568 34.803218 38.804657 38.804657 0 0 0 35.361558 42.015114 26.335055 26.335055 0 0 0 7.444538 0h122.276546z"
          fill="#ffffff" p-id="6175"></path>
</svg>
