<?xml version="1.0" standalone="no"?><!DOCTYPE svg PUBLIC "-//W3C//DTD SVG 1.1//EN"
        "http://www.w3.org/Graphics/SVG/1.1/DTD/svg11.dtd">
<svg t="1617629690339" class="icon" viewBox="0 0 1024 1024" version="1.1" xmlns="http://www.w3.org/2000/svg" p-id="5363"
     xmlns:xlink="http://www.w3.org/1999/xlink" >
    <defs>
        <style type="text/css"></style>
    </defs>
    <path d="M746.666667 85.333333c117.824 0 213.333333 95.509333 213.333333 213.333334v277.333333c0 117.824-95.509333 213.333333-213.333333 213.333333H277.333333C159.509333 789.333333 64 693.824 64 576V298.666667C64 180.842667 159.509333 85.333333 277.333333 85.333333h469.333334z m0 64H277.333333a149.333333 149.333333 0 0 0-149.333333 149.333334v277.333333a149.333333 149.333333 0 0 0 149.333333 149.333333h469.333334a149.333333 149.333333 0 0 0 149.333333-149.333333V298.666667a149.333333 149.333333 0 0 0-149.333333-149.333334z"
          fill="#ffffff" p-id="5364"></path>
    <path d="M469.333333 266.282667a106.666667 106.666667 0 0 1 53.76 14.528l128.64 75.050666a106.666667 106.666667 0 0 1 0 184.277334l-128.64 75.050666a106.666667 106.666667 0 0 1-160.426666-92.16v-150.08a106.666667 106.666667 0 0 1 106.666666-106.666666z m0 64a42.666667 42.666667 0 0 0-42.666666 42.666666v150.101334a42.666667 42.666667 0 0 0 64.170666 36.842666l128.64-75.029333a42.666667 42.666667 0 0 0 0-73.728l-128.64-75.029333A42.666667 42.666667 0 0 0 469.333333 330.282667zM256 928h490.666667a32 32 0 0 0 0-64H256a32 32 0 0 0 0 64z"
          fill="#ffffff" p-id="5365"></path>
</svg>
