<svg id="图层_1" data-name="图层 1" xmlns="http://www.w3.org/2000/svg" viewBox="0 0 176.17 161.58"><defs><style>.cls-1{fill:none;}.cls-2{fill:#3b95d1;}.cls-3{fill:#8cc4ea;}.cls-4{fill:#4974d9;}</style></defs><title>未标题-1</title><line class="cls-1" x1="176.17" y1="76.7" x2="176.17" y2="86.84"/><polygon class="cls-2" points="1.83 44.99 88.31 9.39 88.54 2.58 0.81 37.37 1.83 44.99"/><polygon class="cls-3" points="63.61 109.79 69.9 113.69 141.23 69.5 135.08 66.7 63.61 109.79"/><polygon class="cls-3" points="65.14 149.08 70.13 152.58 138.97 104.15 134.09 101.6 65.14 149.08"/><polygon class="cls-2" points="89.38 139.04 90.7 110.87 139.69 79.41 141.16 69.46 91.2 100.41 92.71 68.25 149.28 37.21 151.09 25.48 69.9 67.77 69.9 161.58 137.66 112.62 138.97 104.15 89.38 139.04"/><polygon class="cls-3" points="142.08 22.18 151.09 25.48 69.9 67.77 0 31.36 81.5 0 88.54 2.58 30.04 25.78 52.04 36.14 60.04 39.9 84.06 51.22 142.08 22.18"/><polygon class="cls-4" points="69.9 82.97 1.87 45.32 0 31.36 69.9 67.77 69.9 82.97"/><polygon class="cls-4" points="58.96 153.67 69.9 161.58 69.9 67.77 56.41 60.74 58.96 153.67"/></svg>
