<?xml version="1.0" standalone="no"?><!DOCTYPE svg PUBLIC "-//W3C//DTD SVG 1.1//EN"
        "http://www.w3.org/Graphics/SVG/1.1/DTD/svg11.dtd">
<svg t="1617629759769" class="icon" viewBox="0 0 1024 1024" version="1.1" xmlns="http://www.w3.org/2000/svg" p-id="8867"
     xmlns:xlink="http://www.w3.org/1999/xlink">
    <defs>
        <style type="text/css"></style>
    </defs>
    <path d="M498.346667 897.706667c-58.026667 0-119.466667-13.653333-174.08-44.373334-17.066667-10.24-23.893333-30.72-13.653334-47.786666 10.24-17.066667 30.72-23.893333 47.786667-13.653334 126.293333 71.68 290.133333 34.133333 378.88-78.506666 98.986667-129.706667 75.093333-317.44-58.026667-413.013334-129.706667-98.986667-317.44-75.093333-413.013333 58.026667-68.266667 92.16-78.506667 215.04-27.306667 317.44 10.24 17.066667 3.413333 37.546667-13.653333 47.786667-17.066667 10.24-37.546667 3.413333-47.786667-13.653334-64.853333-129.706667-51.2-283.306667 34.133334-395.946666 122.88-160.426667 351.573333-191.146667 508.586666-68.266667 160.426667 122.88 191.146667 351.573333 68.266667 508.586667-68.266667 92.16-177.493333 143.36-290.133333 143.36z"
          p-id="8868" fill="#ffffff"></path>
    <path d="M365.226667 535.893333c0 23.893333-20.48 44.373333-44.373334 44.373334-27.306667 0-47.786667-20.48-47.786666-44.373334s20.48-44.373333 44.373333-44.373333c27.306667 0 47.786667 20.48 47.786667 44.373333M546.133333 535.893333c0 23.893333-20.48 44.373333-44.373333 44.373334s-44.373333-20.48-44.373333-44.373334 20.48-44.373333 44.373333-44.373333 44.373333 20.48 44.373333 44.373333M730.453333 535.893333c0 23.893333-20.48 44.373333-44.373333 44.373334s-44.373333-20.48-44.373333-44.373334 20.48-44.373333 44.373333-44.373333 44.373333 20.48 44.373333 44.373333"
          p-id="8869" fill="#ffffff"></path>
</svg>
