<?xml version="1.0" standalone="no"?><!DOCTYPE svg PUBLIC "-//W3C//DTD SVG 1.1//EN"
        "http://www.w3.org/Graphics/SVG/1.1/DTD/svg11.dtd">
<svg t="1617629733965" class="icon" viewBox="0 0 1024 1024" version="1.1" xmlns="http://www.w3.org/2000/svg" p-id="7216"
     xmlns:xlink="http://www.w3.org/1999/xlink" >
    <defs>
        <style type="text/css"></style>
    </defs>
    <path d="M598.075362 850.365217c14.84058 0 28.197101 13.356522 28.197102 28.197102 0 14.84058-13.356522 28.197101-28.197102 28.197101H232.997101c-46.005797 0-84.591304-38.585507-84.591304-84.591304V201.831884c0-46.005797 38.585507-84.591304 84.591304-84.591304H712.347826c46.005797 0 84.591304 38.585507 84.591304 84.591304 0 14.84058-13.356522 28.197101-28.197101 28.197102-14.84058 0-28.197101-13.356522-28.197101-28.197102s-13.356522-28.197101-28.197102-28.197101H232.997101c-14.84058 0-28.197101 13.356522-28.197101 28.197101v620.336232c0 14.84058 13.356522 28.197101 28.197101 28.197101h365.078261z m198.863768-273.066666v129.113043c0 37.101449-56.394203 37.101449-56.394202 0v-129.113043c0-38.585507 56.394203-38.585507 56.394202 0z"
          p-id="7217" fill="#ffffff"></path>
    <path d="M317.588406 342.817391c-14.84058 0-28.197101-13.356522-28.197102-28.197101s13.356522-28.197101 28.197102-28.197102h197.37971c14.84058 0 28.197101 13.356522 28.197101 28.197102s-13.356522 28.197101-28.197101 28.197101H317.588406z m0 140.985508c-14.84058 0-28.197101-13.356522-28.197102-28.197102s13.356522-28.197101 28.197102-28.197101H430.376812c14.84058 0 28.197101 13.356522 28.197101 28.197101s-13.356522 28.197101-28.197101 28.197102h-112.788406z m308.684058 393.275362c0 14.84058-13.356522 28.197101-28.197102 28.197101s-28.197101-13.356522-28.197101-28.197101v-111.304348c0-46.005797 38.585507-84.591304 84.591304-84.591304l112.788406 1.484058c14.84058 0 28.197101 13.356522 28.197101 28.197101s-13.356522 28.197101-28.197101 28.197102l-112.788406-1.484058c-14.84058 0-28.197101 13.356522-28.197101 28.197101v111.304348z"
          p-id="7218" fill="#ffffff"></path>
    <path d="M624.788406 896.371014c-11.872464 10.388406-29.681159 10.388406-40.069565-1.484057-10.388406-11.872464-10.388406-29.681159 1.484058-40.069566l158.794202-152.857971c10.388406-10.388406 28.197101-10.388406 40.069566 0 10.388406 10.388406 10.388406 28.197101 0 40.069566l-1.484058 1.484057-158.794203 152.857971zM839.976812 356.173913c11.872464-10.388406 13.356522-26.713043 2.968116-38.585507s-28.197101-13.356522-40.069566-2.968116L422.956522 635.176812l-13.356522 46.005797 51.942029-4.452174L839.976812 356.173913z m44.521739-77.171014c29.681159 35.617391 26.713043 87.55942-8.904348 118.724637L489.73913 725.704348c-4.452174 4.452174-10.388406 5.936232-16.324637 5.936232l-100.915942 7.42029c-14.84058 1.484058-29.681159-10.388406-29.68116-25.228986 0-2.968116 0-7.42029 1.484058-10.388406l26.713044-93.495652c1.484058-5.936232 4.452174-10.388406 8.904348-13.356522l385.855072-327.976811c35.617391-28.197101 89.043478-23.744928 118.724638 10.388406z"
          p-id="7219" fill="#ffffff"></path>
</svg>
